<?xml version="1.0" encoding="utf-8"?>
<!-- Generator: Adobe Illustrator 20.1.0, SVG Export Plug-In . SVG Version: 6.00 Build 0)  -->
<svg version="1.1" id="Layer_1" xmlns="http://www.w3.org/2000/svg" xmlns:xlink="http://www.w3.org/1999/xlink" x="0px" y="0px"
	 viewBox="0 0 4113.9 820.4" style="enable-background:new 0 0 4113.9 820.4;" xml:space="preserve">
<style type="text/css">
	.st0{fill:#FFFFFF;}
	.st1{fill:#B1132F;}
</style>
<circle class="st0" cx="3703.6" cy="410.4" r="405.7"/>
<path class="st1" d="M3865.9,542c-9.9,17.9-26.3,31.2-48.6,36.8c-26.6,6.8-51.8-2.2-66.7-13.9c-16-12.6-27.5-30.5-29.4-55.8
	c-2-27.6,9.7-48.3,23.5-61.4c10.7-10.1,25.1-18.4,43.2-20.8c6.3-0.8,13.1-0.5,20.3-1.1c25.5-2.2,44.7-12.2,60.3-25.1
	c18.9-15.6,34.1-38.5,38.2-68.3c0.8-6.3,0.6-12.9,1.1-20.3c0.7-12.5,4.9-23.8,9.9-32.8c10-18.1,25.6-31.5,48-37.4
	c25.6-6.7,51.9,1.8,67,13.6c7.7,6,14.4,13.6,19.8,22.9c5.2,9.1,8.9,20.3,9.8,33.1c2,27.2-9.9,48.8-23.7,61.6
	c-10.9,10.2-25.1,18.3-43.5,20.6c-6.3,0.8-13.1,0.4-20.3,1.1c-25.9,2.5-44.2,12.1-60,25.3c-18.8,15.7-33.6,38.2-37.9,68.6
	c-0.9,6.4-0.6,13.4-1.1,20.3C3875,521.6,3871.1,532.8,3865.9,542 M3858.1,751.2c-12.6,16-30.5,27.5-55.8,29.4
	c-27.6,2-48.3-9.7-61.4-23.5c-10.2-10.7-18.4-25.1-20.8-43.2c-0.8-6.3-0.5-13.1-1.1-20.3c-2.1-25.5-12.2-44.7-25.1-60.3
	c-15.6-18.9-38.5-34.1-68.3-38.2c-6.3-0.8-12.9-0.6-20.3-1.1c-12.5-0.7-23.8-4.8-32.8-9.9c-18.1-10-31.5-25.6-37.4-48
	c-6.7-25.6,1.8-51.9,13.6-67c6-7.7,13.6-14.4,22.9-19.8c9.1-5.2,20.3-8.9,33.1-9.9c27.2-2,48.8,9.9,61.6,23.8
	c10.2,10.9,18.3,25.1,20.6,43.5c0.8,6.3,0.4,13.1,1.1,20.3c2.6,25.9,12.1,44.2,25.4,60c15.7,18.8,38.2,33.6,68.6,37.9
	c6.4,0.9,13.4,0.6,20.3,1.1c12.5,0.9,23.7,4.8,32.8,9.9c17.9,9.9,31.2,26.3,36.8,48.6C3878.7,711,3869.8,736.3,3858.1,751.2
	 M3493.3,488.9c-0.9,6.4-0.6,13.4-1.1,20.3c-0.8,12.5-4.8,23.6-9.9,32.8c-9.9,17.9-26.3,31.2-48.6,36.8
	c-26.6,6.8-51.8-2.2-66.7-13.9c-16-12.6-27.5-30.5-29.3-55.8c-2-27.6,9.7-48.3,23.5-61.4c10.7-10.1,25.1-18.4,43.2-20.8
	c6.3-0.8,13.1-0.5,20.3-1.1c25.5-2.2,44.7-12.2,60.3-25.1c18.9-15.6,34.1-38.5,38.1-68.3c0.9-6.3,0.6-12.9,1.1-20.3
	c0.7-12.5,4.8-23.8,9.9-32.8c10-18.1,25.6-31.5,48-37.4c25.6-6.7,51.9,1.8,67,13.6c7.6,6,14.4,13.6,19.8,22.9
	c5.2,9.1,8.9,20.3,9.9,33.1c2,27.2-9.9,48.8-23.7,61.6c-10.9,10.2-25.1,18.3-43.5,20.6c-6.2,0.8-13.1,0.4-20.3,1.1
	c-25.9,2.5-44.2,12.1-60.1,25.3C3512.3,436,3497.6,458.5,3493.3,488.9 M3548.8,73.1c6-7.6,13.6-14.4,22.9-19.8
	c9.1-5.2,20.3-8.9,33.1-9.9c27.2-2,48.8,9.9,61.6,23.7c10.2,10.9,18.3,25.1,20.6,43.5c0.8,6.3,0.4,13.1,1.1,20.3
	c2.6,25.9,12.1,44.2,25.4,60c15.7,18.8,38.2,33.6,68.6,37.9c6.4,0.9,13.4,0.6,20.3,1.1c12.5,0.8,23.7,4.8,32.8,9.9
	c17.9,9.9,31.2,26.4,36.8,48.6c6.8,26.6-2.2,51.8-13.9,66.7c-12.6,16-30.5,27.5-55.8,29.4c-27.6,2-48.3-9.7-61.4-23.5
	c-10.2-10.7-18.4-25.1-20.8-43.2c-0.8-6.3-0.5-13.1-1.1-20.3c-2.1-25.5-12.2-44.7-25.1-60.3c-15.6-18.9-38.5-34.1-68.3-38.2
	c-6.3-0.8-12.9-0.6-20.3-1.1c-12.5-0.7-23.8-4.8-32.8-9.9c-18.1-10-31.5-25.6-37.4-48C3528.5,114.5,3537,88.1,3548.8,73.1
	 M3906.8,728.6c0.8-6.3,0.6-12.9,1.1-20.3c0.7-12.5,4.9-23.8,9.9-32.8c10-18.1,25.6-31.5,48-37.4c25.6-6.7,51.9,1.8,67,13.6
	c0.5,0.4,1,0.9,1.5,1.3c9.2-12.5,17.6-25.5,25.3-38.9c-13.2-9.5-29.2-16.5-48-19c-6.3-0.8-12.9-0.6-20.3-1.1
	c-12.5-0.7-23.8-4.8-32.8-9.9c-18.1-10-31.5-25.6-37.4-48c-6.7-25.6,1.8-51.9,13.6-67c6-7.7,13.6-14.4,23-19.8
	c9.1-5.2,20.3-8.9,33.1-9.9c27.2-2,48.8,9.9,61.6,23.8c10.2,10.9,18.3,25.1,20.6,43.5c0.7,6.3,0.4,13.1,1.1,20.3
	c1.4,14.2,5,26.1,10.1,36.6c19.1-47.4,29.7-99,29.7-153.2c0-65.8-15.6-127.9-43.1-183c-14.9-14.2-34.6-25.1-59.1-28.4
	c-6.3-0.8-12.9-0.6-20.3-1.1c-12.5-0.7-23.8-4.8-32.8-9.9c-18.1-10-31.5-25.6-37.4-48c-6.7-25.6,1.8-51.9,13.6-67
	c0.3-0.3,0.6-0.6,0.8-0.9c-13.3-9.1-27.1-17.4-41.4-25c-8.5,12.6-14.7,27.7-17.2,45.6c-0.9,6.4-0.6,13.4-1.1,20.3
	c-0.9,12.5-4.8,23.7-9.9,32.8c-9.9,17.9-26.3,31.2-48.6,36.8c-26.6,6.8-51.8-2.2-66.7-13.9c-16-12.6-27.5-30.5-29.4-55.8
	c-2-27.6,9.7-48.3,23.5-61.4c10.7-10.2,25.1-18.4,43.2-20.8c6.3-0.8,13.1-0.5,20.3-1.1c11-0.9,20.9-3.4,29.8-6.9
	C3796,8.1,3750.7,0,3703.6,0c-70.3,0-136.5,17.7-194.4,48.9c-7.8,12.3-13.6,26.7-16,43.7c-0.9,6.4-0.6,13.4-1.1,20.3
	c-0.8,12.5-4.7,23.6-9.9,32.8c-9.9,17.9-26.3,31.2-48.6,36.8c-24.7,6.3-48.1-1-63.3-11.5c-8.6,12-16.7,24.6-24,37.5
	c13.4,10,29.9,17.3,49.7,20.1c6.4,0.9,13.4,0.6,20.3,1.1c12.5,0.8,23.7,4.8,32.8,9.9c17.8,9.9,31.2,26.4,36.8,48.6
	c6.8,26.6-2.2,51.8-13.9,66.7c-12.6,16-30.5,27.5-55.8,29.4c-27.6,2-48.3-9.7-61.4-23.5c-10.1-10.7-18.4-25.1-20.8-43.2
	c-0.8-6.3-0.5-13.1-1.1-20.3c-1.2-14.8-5.2-27.4-10.8-38.5c-18.6,46.9-29,97.9-29,151.4c0,68.1,16.7,132.3,46.1,188.9
	c14.5,12.8,33.2,22.4,56.6,25.7c6.4,0.9,13.4,0.6,20.3,1.1c12.5,0.9,23.7,4.8,32.8,9.9c17.8,9.9,31.2,26.3,36.8,48.6
	c6.6,25.8-1.7,50.3-12.9,65.3c11.2,7.6,22.7,14.7,34.6,21.2c7.6-12,13.2-26.1,15.3-42.4c0.9-6.3,0.6-12.9,1.1-20.3
	c0.7-12.5,4.8-23.8,9.9-32.8c10-18.1,25.6-31.5,48-37.4c25.6-6.7,51.9,1.8,67,13.6c7.6,5.9,14.4,13.6,19.8,22.9
	c5.2,9.1,8.9,20.3,9.9,33.1c2,27.3-9.9,48.8-23.7,61.6c-10.9,10.2-25.1,18.3-43.5,20.5c-6.2,0.8-13.1,0.4-20.3,1.1
	c-9.6,0.9-18.2,2.9-26,5.6c43.2,15.5,89.8,24,138.4,24c66.1,0,128.4-15.7,183.7-43.4C3897,763.9,3904.2,747.7,3906.8,728.6"/>
<g>
	<path class="st0" d="M365,469.6c0,51.6-18.2,90.3-54.7,116.1c-31.6,21.8-74.5,32.7-128.8,32.7c-36.5,0-70.3-6.9-101.4-20.7
		c-34.2-14.7-60.9-36-80.1-64l67.4-60c30.7,35.6,70.5,53.4,119.4,53.4c54.3,0,81.4-16.9,81.4-50.7c0-19.6-13.1-34.9-39.4-46
		c-9.3-4-30.9-9.8-64.7-17.3C115.2,402,80,387.8,58.7,370.4c-27.1-21.8-40.7-54-40.7-96.7c0-43.6,17.3-77.8,52-102.7
		c31.1-22.7,69.4-34,114.7-34c66.7,0,123.4,24.5,170.1,73.4l-67.4,65.4c-31.1-32-66.5-48-106.1-48c-44.5,0-66.7,14-66.7,42
		c0,17.3,12,30.9,36,40.7c6.2,2.7,25.6,7.8,58,15.3c48.5,11.6,83.8,25.1,106.1,40.7C348.3,389.8,365,424.2,365,469.6"/>
	<path class="st0" d="M695.2,611h-92.1v-23.4c-19.6,20.5-46.9,30.7-82.1,30.7c-86.3,0-129.4-53.4-129.4-160.1V260.8h92.1v189.4
		c0,25.8,3.6,44.7,10.7,56.7c8.9,16.5,25.1,24.7,48.7,24.7c40,0,60-26.5,60-79.4V260.8h92.1L695.2,611L695.2,611z"/>
	<path class="st0" d="M953.4,442.2c0-68-20-102.1-60-102.1c-22.7,0-41.6,9.8-56.7,29.3v132.1c14.7,20,35.4,30,62,30
		C935.1,531.6,953.4,501.8,953.4,442.2 M1046.8,440.2c0,48.9-10.2,89.4-30.7,121.4c-24,37.8-59.2,56.7-105.4,56.7
		c-29.4,0-54-9.1-74-27.4v110.5l-92.1,46V260.8h92.1v22c22.2-19.6,46.9-29.3,74-29.3c48,0,83.8,20,107.4,60
		C1037.2,346.4,1046.8,388.6,1046.8,440.2"/>
	<path class="st0" d="M1288.9,396.2c-1.3-18.7-7.5-33.8-18.4-45.4c-10.9-11.6-25.7-17.3-44.4-17.3c-16.9,0-30.3,6.1-40,18.3
		c-9.8,12.2-15.6,27-17.3,44.4H1288.9z M1378.3,436.2c0,10.7-0.4,20.5-1.3,29.3h-209.5c1.3,20.5,8.6,36.6,21.7,48.4
		c13.1,11.8,29.9,17.7,50.4,17.7c25.8,0,45.8-8.2,60-24.7l65.4,54.7c-13.8,17.8-32.1,31.7-55,41.7c-22.9,10-46.4,15-70.4,15
		c-52.5,0-93.6-17.6-123.4-52.7c-27.6-32.9-41.4-76-41.4-129.4c0-49.8,13.3-91.8,40-126.1c28.9-37.8,67.6-56.7,116.1-56.7
		c47.6,0,84.7,19.3,111.4,58C1366.3,345.3,1378.3,386.8,1378.3,436.2"/>
	<path class="st0" d="M1627.1,278.1l-24,90.1c-16.5-15.1-34.2-22.7-53.4-22.7c-22.7,0-38.7,7.1-48,21.3c-7.6,12-11.3,30.3-11.3,54.7
		v189.4h-92.1V260.8h92.1v23.3c19.6-20.5,43.6-30.7,72-30.7C1590,253.4,1611.5,261.7,1627.1,278.1"/>
	<path class="st0" d="M2001.3,469.6c0,51.6-18.2,90.3-54.7,116.1c-31.6,21.8-74.5,32.7-128.7,32.7c-36.5,0-70.3-6.9-101.4-20.7
		c-34.2-14.7-60.9-36-80.1-64l67.4-60c30.7,35.6,70.5,53.4,119.4,53.4c54.2,0,81.4-16.9,81.4-50.7c0-19.6-13.1-34.9-39.4-46
		c-9.3-4-30.9-9.8-64.7-17.3c-48.9-11.1-84-25.3-105.4-42.7c-27.1-21.8-40.7-54-40.7-96.7c0-43.6,17.3-77.8,52-102.7
		c31.1-22.7,69.4-34,114.7-34c66.7,0,123.4,24.5,170.1,73.4l-67.4,65.4c-31.1-32-66.5-48-106.1-48c-44.5,0-66.7,14-66.7,42
		c0,17.3,12,30.9,36,40.7c6.2,2.7,25.6,7.8,58,15.3c48.5,11.6,83.8,25.1,106.1,40.7C1984.7,389.8,2001.3,424.2,2001.3,469.6"/>
	<path class="st0" d="M2240.1,503.6l-13.3,93.4c-18.2,14.2-42,21.3-71.4,21.3s-52.5-10.4-69.4-31.4c-16-19.6-24-44.2-24-74V347.5
		h-58.7v-86.7h58.7v-90.1l92.1-46v136.1h84.1v86.7h-84.1v140.7c0,28,11.3,42,34,42C2201.9,530.3,2219.2,521.4,2240.1,503.6"/>
	<path class="st0" d="M2468.9,396.2c-1.3-18.7-7.4-33.8-18.3-45.4c-10.9-11.6-25.7-17.3-44.4-17.3c-16.9,0-30.3,6.1-40,18.3
		c-9.8,12.2-15.6,27-17.3,44.4H2468.9z M2558.3,436.2c0,10.7-0.5,20.5-1.3,29.3h-209.5c1.3,20.5,8.6,36.6,21.7,48.4
		c13.1,11.8,29.9,17.7,50.4,17.7c25.8,0,45.8-8.2,60-24.7l65.4,54.7c-13.8,17.8-32.1,31.7-55,41.7s-46.4,15-70.4,15
		c-52.5,0-93.6-17.6-123.4-52.7c-27.6-32.9-41.4-76-41.4-129.4c0-49.8,13.4-91.8,40-126.1c28.9-37.8,67.6-56.7,116.1-56.7
		c47.6,0,84.7,19.3,111.4,58C2546.3,345.3,2558.3,386.8,2558.3,436.2"/>
	<path class="st0" d="M2800.5,442.2c0-68-20-102.1-60-102.1c-22.7,0-41.6,9.8-56.7,29.3v132.1c14.7,20,35.4,30,62,30
		C2782.2,531.6,2800.5,501.8,2800.5,442.2 M2893.9,440.2c0,48.9-10.2,89.4-30.7,121.4c-24,37.8-59.2,56.7-105.4,56.7
		c-29.3,0-54-9.1-74-27.4v110.5l-92.1,46V260.8h92.1v22c22.2-19.6,46.9-29.3,74-29.3c48,0,83.8,20,107.4,60
		C2884.3,346.4,2893.9,388.6,2893.9,440.2"/>
</g>
</svg>
